<?xml version="1.0" encoding="UTF-8"?>
<!-- Generator: visioncortex VTracer 0.6.3 -->
<svg version="1.1" xmlns="http://www.w3.org/2000/svg" width="1280" height="1242">
<path d="M0 0 C0.33 0.33 0.66 0.66 1 1 C2.87 1.16 4.75 1.28 6.62 1.38 C11.71 1.76 15.4 2.7 20 5 C21.64 5.66 23.29 6.3 24.94 6.94 C28.71 8.39 32.29 10.12 35.9 11.95 C39.26 13.63 42.66 15.22 46.06 16.81 C46.8 17.16 47.53 17.5 48.28 17.86 C51.84 19.53 55.41 21.19 58.98 22.83 C66.11 26.11 73.06 29.56 79.9 33.42 C82.88 34.94 85.83 36.08 88.96 37.21 C92.28 38.49 95.41 40.12 98.56 41.75 C104.48 44.76 110.44 47.64 116.47 50.41 C122.08 53.01 127.58 55.79 133.07 58.62 C135.44 59.73 137.45 60.52 140 61 C140 61.66 140 62.32 140 63 C140.66 63.09 141.32 63.18 142 63.27 C145.93 64.22 149.32 65.87 152.94 67.62 C153.68 67.98 154.43 68.34 155.19 68.7 C161.12 71.54 167 74.47 172.85 77.46 C176.19 79.09 179.58 80.54 183 82 C185.97 83.37 188.92 84.78 191.88 86.19 C193.57 86.99 195.26 87.8 196.95 88.6 C197.8 89 198.64 89.41 199.51 89.82 C201.82 90.92 204.14 92 206.46 93.09 C214.15 96.68 221.79 100.37 229.37 104.2 C238.98 109.07 238.98 109.07 249 113 C249 113.66 249 114.32 249 115 C249.67 115.09 250.34 115.18 251.02 115.27 C254.85 116.21 258.15 117.94 261.62 119.75 C263.07 120.49 264.51 121.22 265.96 121.96 C266.66 122.31 267.35 122.67 268.07 123.03 C271.31 124.66 274.61 126.12 277.92 127.6 C282.83 129.83 287.7 132.16 292.58 134.48 C296.66 136.42 300.74 138.35 304.83 140.25 C305.59 140.61 306.36 140.97 307.15 141.34 C308.59 142.01 310.04 142.68 311.48 143.35 C314.25 144.64 316.93 145.96 319.54 147.54 C321.99 148.99 324.49 150.09 327.12 151.19 C331.16 152.93 335.04 155.02 338.95 157.04 C342.25 158.72 345.52 160.24 349 161.5 C352.42 162.74 355.59 164.23 358.82 165.89 C363.15 168.1 367.55 170.16 371.94 172.25 C372.95 172.73 373.96 173.22 375 173.71 C381.7 176.92 388.42 180.08 395.15 183.23 C399.33 185.19 403.45 187.22 407.56 189.31 C413.98 192.56 420.51 195.53 427.06 198.5 C434.65 201.94 442.05 205.51 449.32 209.59 C451.92 210.96 454.5 212.03 457.25 213.06 C462.37 215 466.56 217.85 471 221 C472.19 221.75 473.37 222.5 474.56 223.25 C475.37 223.83 476.17 224.41 477 225 C477 225.66 477 226.32 477 227 C477.74 227.23 478.48 227.45 479.25 227.69 C482.56 229.27 483.84 231.07 486 234 C486.6 234.59 487.2 235.17 487.82 235.78 C501.27 249.47 505.67 265.79 509.07 284.16 C510.12 289.78 511.51 295.27 512.93 300.8 C514.88 308.4 516.65 316.05 518.45 323.69 C518.9 325.59 519.35 327.48 519.81 329.38 C521.24 335.45 522.53 341.54 523.79 347.64 C525.8 357.45 527.97 367.18 530.46 376.88 C532.4 384.56 534.18 392.29 536 400 C536.4 401.69 536.4 401.69 536.81 403.42 C538.2 409.36 539.5 415.32 540.79 421.28 C542.7 430.17 544.71 439.01 546.96 447.82 C548.26 452.99 549.44 458.18 550.62 463.38 C550.83 464.28 551.04 465.18 551.25 466.11 C552.24 470.5 553.18 474.88 554.02 479.29 C554.75 482.99 555.8 486.43 557 490 C557.7 493.11 558.28 496.24 558.88 499.38 C560.37 507.1 562.11 514.73 564.07 522.35 C565.89 529.47 567.51 536.63 569 543.82 C569.18 544.67 569.35 545.51 569.54 546.38 C569.88 548.05 570.22 549.71 570.55 551.38 C571.23 554.66 571.93 557.8 573 560.98 C574.35 565.05 575.08 569.17 575.88 573.38 C577.37 581.1 579.11 588.73 581.07 596.35 C582.89 603.48 584.52 610.65 586 617.86 C586.18 618.71 586.35 619.55 586.54 620.43 C586.88 622.11 587.22 623.79 587.55 625.47 C588.19 628.58 588.79 631.5 590 634.45 C591.56 638.44 592.13 642.6 592.88 646.81 C594.34 654.81 596.08 662.66 598.12 670.54 C599.07 674.27 599.84 678 600.51 681.79 C600.98 684.12 600.98 684.12 601.96 686.77 C603.37 691.16 604.09 695.63 604.86 700.17 C605.36 703.02 605.87 705.69 606.97 708.38 C608.56 712.42 609.2 716.62 610 720.88 C611.31 727.93 611.31 727.93 613.09 734.88 C618.52 753.43 614.95 776.05 605.99 792.93 C602.08 799.87 597.68 805.85 592.18 811.62 C589.94 814.07 588.04 816.6 586.12 819.31 C582.66 824.2 578.91 828.75 575.01 833.29 C571.71 837.14 568.56 841.07 565.47 845.09 C563.39 847.79 561.19 850.39 559 853 C554.44 858.62 549.97 864.31 545.5 870 C533.79 884.92 533.79 884.92 529.2 890.29 C528.47 891.15 528.47 891.15 527.72 892.03 C526.77 893.14 525.81 894.25 524.86 895.36 C521.95 898.75 519.47 902.28 517 906 C516.02 907.02 515.02 908.02 514 909 C512.77 910.49 511.57 911.99 510.38 913.5 C506.64 918.21 502.83 922.84 498.98 927.46 C496.96 929.94 496.96 929.94 495.43 932.64 C494.1 934.84 492.84 936.24 491 938 C489.67 939.59 488.36 941.2 487.06 942.81 C482.87 947.99 478.55 953.04 474.16 958.05 C471.13 961.54 468.54 965.13 466 969 C464.67 970.71 463.32 972.4 461.94 974.06 C460.77 975.48 460.77 975.48 459.58 976.92 C457.77 979.09 455.94 981.24 454.11 983.39 C453.62 983.96 453.14 984.53 452.64 985.12 C451.7 986.22 450.75 987.31 449.81 988.41 C447.71 990.86 445.79 993.31 444 996 C441.81 999.29 439.34 1002.26 436.75 1005.25 C435.77 1006.4 434.78 1007.55 433.8 1008.7 C433.32 1009.26 432.84 1009.83 432.35 1010.4 C427.89 1015.67 423.66 1021.12 419.49 1026.61 C414.9 1032.65 410.13 1038.47 405.11 1044.16 C402.79 1046.81 400.67 1049.43 398.77 1052.41 C398.19 1053.26 397.6 1054.12 397 1055 C396.34 1055 395.68 1055 395 1055 C394.79 1055.68 394.58 1056.37 394.36 1057.07 C392.57 1060.92 390.06 1063.67 387.25 1066.81 C386.16 1068.05 385.08 1069.29 384 1070.54 C383.48 1071.13 382.96 1071.72 382.43 1072.34 C379.32 1075.96 376.14 1079.72 374 1084 C373.34 1084 372.68 1084 372 1084 C371.63 1085.1 371.63 1085.1 371.25 1086.21 C369.87 1089.3 368.27 1091.13 365.94 1093.56 C361.47 1098.36 357.65 1103.4 353.85 1108.73 C353.24 1109.48 352.63 1110.23 352 1111 C351.34 1111 350.68 1111 350 1111 C349.78 1111.7 349.55 1112.39 349.32 1113.11 C347.69 1116.67 345.38 1119.35 342.81 1122.25 C341.82 1123.4 340.82 1124.55 339.83 1125.7 C339.34 1126.26 338.86 1126.82 338.36 1127.4 C335.99 1130.19 333.76 1133.09 331.54 1136 C325.97 1143.24 320.17 1150.33 314.21 1157.25 C308.12 1164.34 308.12 1164.34 302.69 1171.94 C290.14 1190.29 271.41 1201.77 250 1207 C244.05 1207.88 238.17 1208.14 232.17 1208.13 C230.9 1208.13 230.9 1208.13 229.6 1208.13 C226.78 1208.14 223.96 1208.14 221.14 1208.13 C219.09 1208.14 217.04 1208.14 214.99 1208.14 C209.37 1208.15 203.75 1208.15 198.13 1208.15 C192.06 1208.15 186 1208.15 179.93 1208.16 C168.05 1208.16 156.17 1208.17 144.29 1208.17 C134.63 1208.17 124.98 1208.17 115.32 1208.17 C112.54 1208.17 109.75 1208.17 106.97 1208.18 C105.94 1208.18 105.94 1208.18 104.88 1208.18 C85.43 1208.18 65.98 1208.19 46.53 1208.19 C45.8 1208.19 45.07 1208.19 44.31 1208.19 C40.6 1208.19 36.88 1208.19 33.17 1208.19 C32.43 1208.19 31.69 1208.19 30.93 1208.19 C29.44 1208.19 27.95 1208.19 26.46 1208.19 C3.25 1208.18 -19.96 1208.19 -43.17 1208.21 C-69.26 1208.22 -95.35 1208.23 -121.43 1208.23 C-124.22 1208.23 -127 1208.23 -129.78 1208.23 C-130.47 1208.23 -131.15 1208.23 -131.86 1208.23 C-142.87 1208.23 -153.89 1208.24 -164.9 1208.24 C-175.98 1208.25 -187.05 1208.25 -198.13 1208.25 C-204.12 1208.24 -210.12 1208.24 -216.12 1208.25 C-221.61 1208.26 -227.1 1208.26 -232.6 1208.25 C-234.58 1208.25 -236.56 1208.25 -238.55 1208.26 C-265.62 1208.33 -287.42 1203.22 -307.42 1183.61 C-315.43 1175.44 -315.43 1175.44 -317.09 1171.23 C-317.54 1170.13 -317.54 1170.13 -318 1169 C-318.99 1168.67 -319.98 1168.34 -321 1168 C-322.38 1166.03 -323.7 1164.02 -325 1162 C-325.9 1160.9 -326.82 1159.82 -327.75 1158.75 C-330 1156 -330 1156 -330 1154 C-330.66 1154 -331.32 1154 -332 1154 C-335 1150.54 -335 1150.54 -335 1148 C-335.66 1148 -336.32 1148 -337 1148 C-338.48 1146.35 -338.48 1146.35 -340.19 1144.06 C-341.13 1142.81 -341.13 1142.81 -342.1 1141.54 C-342.73 1140.7 -343.35 1139.86 -344 1139 C-349.13 1132.25 -354.51 1125.71 -359.94 1119.2 C-370 1107.08 -370 1107.08 -370 1104 C-370.66 1104 -371.32 1104 -372 1104 C-373.77 1101.93 -375.42 1099.85 -377.06 1097.69 C-378.05 1096.4 -379.05 1095.11 -380.04 1093.82 C-380.54 1093.17 -381.04 1092.53 -381.55 1091.86 C-383.61 1089.22 -385.74 1086.64 -387.88 1084.06 C-390.28 1081.15 -392.6 1078.23 -394.75 1075.12 C-396.86 1072.01 -396.86 1072.01 -399.32 1069.71 C-402.2 1066.8 -404.69 1063.74 -407.19 1060.5 C-407.89 1059.59 -407.89 1059.59 -408.61 1058.67 C-409.59 1057.41 -410.56 1056.15 -411.54 1054.89 C-412.97 1053.03 -414.42 1051.18 -415.87 1049.34 C-416.77 1048.18 -417.66 1047.03 -418.56 1045.88 C-419.37 1044.84 -420.17 1043.81 -421 1042.74 C-422.62 1040.52 -423.89 1038.5 -425 1036 C-425.66 1036 -426.32 1036 -427 1036 C-428.7 1034.13 -428.7 1034.13 -430.69 1031.56 C-431.4 1030.64 -432.12 1029.73 -432.86 1028.78 C-433.57 1027.86 -434.27 1026.95 -435 1026 C-436.15 1024.52 -437.29 1023.04 -438.44 1021.56 C-439 1020.83 -439.57 1020.1 -440.16 1019.34 C-442.97 1015.77 -445.86 1012.26 -448.75 1008.75 C-453.43 1003.03 -458.04 997.27 -462.51 991.38 C-467.08 985.37 -471.86 979.59 -476.81 973.89 C-479.88 970.34 -482.81 966.75 -485.55 962.95 C-488.07 959.57 -490.78 956.35 -493.46 953.1 C-495 951 -495 951 -495 949 C-495.66 949 -496.32 949 -497 949 C-498.45 947.38 -498.45 947.38 -500.12 945.12 C-500.75 944.3 -501.37 943.48 -502.02 942.62 C-502.67 941.76 -503.33 940.89 -504 940 C-510.35 931.94 -516.86 924.01 -523.39 916.11 C-535 902.04 -535 902.04 -535 899 C-535.66 899 -536.32 899 -537 899 C-540 895.54 -540 895.54 -540 893 C-540.66 893 -541.32 893 -542 893 C-543.45 891.38 -543.45 891.38 -545.12 889.12 C-547.74 885.66 -550.39 882.25 -553.12 878.88 C-555.43 876.01 -557.65 873.14 -559.75 870.12 C-561.79 867.11 -561.79 867.11 -563.82 865.21 C-566.52 862.47 -568.84 859.48 -571.19 856.44 C-575.35 851.09 -579.59 845.8 -583.9 840.57 C-585.9 838.13 -587.86 835.66 -589.81 833.19 C-593.67 828.34 -597.7 823.65 -601.79 819 C-604.83 815.49 -607.46 811.9 -610 808 C-611.13 806.51 -612.27 805.03 -613.44 803.56 C-614.64 802.05 -615.82 800.53 -617 799 C-617.4 798.49 -617.81 797.98 -618.22 797.46 C-621.58 793.04 -623.48 788.69 -625.19 783.44 C-625.43 782.71 -625.68 781.98 -625.94 781.23 C-626.42 779.81 -626.89 778.38 -627.35 776.96 C-627.93 775.21 -628.55 773.48 -629.17 771.75 C-630.31 767.99 -630.13 764.91 -630 761 C-630.33 761 -630.66 761 -631 761 C-631.35 746.6 -629.06 733.82 -625.48 719.9 C-623.37 711.6 -621.64 703.22 -620 694.81 C-618.85 688.91 -617.58 683.18 -615.71 677.46 C-614.43 673.04 -613.68 668.51 -612.82 664 C-612.01 659.92 -611.03 655.9 -610 651.88 C-609.83 651.2 -609.66 650.53 -609.48 649.83 C-609.31 649.17 -609.14 648.51 -608.97 647.82 C-606.98 639.97 -605.21 632.07 -603.57 624.14 C-601.93 616.23 -600.14 608.4 -598.14 600.57 C-595.85 591.49 -593.83 582.34 -591.74 573.22 C-591.23 571.02 -590.73 568.83 -590.22 566.63 C-588.75 560.33 -587.36 554.03 -586.06 547.69 C-584.59 540.6 -582.93 533.58 -581.14 526.57 C-578.85 517.49 -576.82 508.34 -574.74 499.21 C-573.99 495.94 -573.23 492.68 -572.47 489.42 C-570.87 482.5 -569.38 475.55 -567.89 468.6 C-566.63 462.72 -565.24 456.9 -563.77 451.08 C-562.44 445.76 -561.22 440.41 -560 435.06 C-559.5 432.89 -559 430.71 -558.5 428.54 C-558.25 427.46 -558.01 426.38 -557.75 425.27 C-557.25 423.08 -556.74 420.88 -556.23 418.69 C-554.61 411.7 -553.06 404.7 -551.56 397.69 C-549.89 389.92 -548.08 382.21 -546.11 374.52 C-544.28 367.21 -542.72 359.84 -541.11 352.49 C-539.03 343.02 -539.03 343.02 -537.97 338.88 C-536.74 333.94 -535.68 328.97 -534.62 324 C-532.91 316.01 -531.06 308.08 -529.03 300.16 C-527.99 296.03 -527.07 291.87 -526.14 287.71 C-524.13 278.66 -522.02 269.78 -519 261 C-518.63 259.79 -518.63 259.79 -518.25 258.56 C-510.02 234.56 -488.6 220.49 -466.95 209.87 C-463.66 208.29 -460.33 206.86 -456.94 205.5 C-451.54 203.33 -446.49 200.69 -441.43 197.85 C-438.36 196.16 -435.36 194.71 -432.06 193.53 C-427.72 191.97 -423.79 189.85 -419.75 187.62 C-413.96 184.49 -408.2 181.73 -402.08 179.3 C-398.36 177.73 -394.78 175.95 -391.19 174.12 C-384.84 170.9 -378.44 167.83 -371.97 164.84 C-366.7 162.41 -361.46 159.91 -356.22 157.42 C-352.21 155.52 -348.21 153.63 -344.19 151.75 C-343.42 151.4 -342.65 151.04 -341.86 150.67 C-340.41 149.99 -338.97 149.32 -337.52 148.65 C-334.75 147.36 -332.07 146.04 -329.46 144.46 C-327.04 143.03 -324.59 141.93 -322 140.85 C-317.96 139.13 -314.02 137.2 -310.06 135.31 C-309.13 134.87 -308.2 134.43 -307.24 133.97 C-301.83 131.39 -296.47 128.73 -291.12 126 C-283.72 122.22 -276.09 118.99 -268.45 115.72 C-261.45 112.7 -254.74 109.35 -248.07 105.66 C-244.94 103.96 -241.78 102.52 -238.5 101.12 C-234.27 99.22 -230.15 97.1 -226.02 94.99 C-221.83 92.87 -217.59 90.9 -213.29 89.01 C-209.47 87.32 -205.71 85.54 -201.94 83.75 C-200.71 83.17 -200.71 83.17 -199.45 82.57 C-190.46 78.29 -181.56 73.84 -172.69 69.31 C-168.24 67.05 -163.86 64.89 -159.19 63.12 C-154.75 61.42 -150.66 59.27 -146.5 57 C-141.66 54.36 -136.9 52.06 -131.73 50.12 C-127.36 48.32 -123.18 46.15 -118.97 43.99 C-115.62 42.28 -112.26 40.65 -108.82 39.14 C-102.8 36.5 -96.91 33.61 -91 30.75 C-82.4 26.59 -73.79 22.45 -65.11 18.45 C-61.6 16.82 -58.31 14.99 -55 13 C-53.74 12.48 -52.47 12 -51.19 11.56 C-48.4 10.56 -45.81 9.44 -43.19 8.06 C-29.49 1.1 -15.22 -0.88 0 0 Z M-630 746 C-629 748 -629 748 -629 748 Z " fill="#316DE6" transform="translate(647,16)"/>
<path d="M0 0 C7.65 4.52 11.89 12.22 14.62 20.44 C15.74 33.42 14.46 46.15 12.2 58.92 C10.87 66.54 9.97 74.11 9.38 81.81 C9.3 82.82 9.22 83.82 9.13 84.85 C7.79 99.51 7.79 99.51 11.62 113.44 C12.49 114.43 13.36 115.42 14.25 116.44 C17.07 119.99 17.28 122.17 17.48 126.58 C17.42 128.45 17.42 128.45 18.62 129.44 C20.38 129.76 22.15 130.03 23.93 130.27 C25.59 130.5 25.59 130.5 27.3 130.74 C28.5 130.91 29.7 131.08 30.94 131.25 C70.17 136.92 107.55 147.93 142.74 166.46 C144.66 167.46 146.59 168.42 148.54 169.37 C166.83 178.53 183.92 190.36 199.62 203.44 C200.68 204.3 201.74 205.16 202.79 206.03 C209.88 211.87 216.6 218.06 223.25 224.4 C223.89 225.01 224.53 225.62 225.19 226.25 C225.76 226.79 226.32 227.34 226.91 227.89 C228.75 229.55 230.55 231.08 232.62 232.44 C235.78 231.69 237.59 230.47 240.06 228.38 C243.37 226.01 246.45 226.21 250.44 226.12 C258.01 225.75 261.31 223.62 266.62 218.44 C267.45 217.71 268.28 216.98 269.14 216.23 C275.99 210.16 282.46 203.71 288.94 197.25 C290.21 195.99 290.21 195.99 291.51 194.69 C295.89 190.3 300.11 185.83 304.16 181.13 C311.42 172.77 321 165.69 332.13 163.86 C339.99 163.6 345.73 164.88 351.56 170.2 C356.95 175.9 359.67 181.4 360.06 189.25 C359.65 199.29 355.9 206.25 348.59 213.03 C340.32 219.75 331.11 224.81 321.7 229.77 C316.84 232.41 312.24 235.4 307.62 238.44 C306.41 239.21 305.2 239.98 303.99 240.75 C288.77 250.22 288.77 250.22 278.62 264.44 C278.5 266.14 278.5 266.14 278.38 267.88 C277.43 272.38 275.51 273.84 272.02 276.66 C270.35 278.37 270.35 278.37 270.87 280.75 C271.67 283.6 272.75 285.69 274.29 288.21 C274.83 289.11 275.37 290.01 275.93 290.94 C276.51 291.89 277.09 292.83 277.69 293.81 C278.88 295.8 280.07 297.79 281.26 299.78 C281.84 300.75 282.42 301.72 283.02 302.72 C292.92 319.47 300.16 337.13 306.62 355.44 C306.98 356.43 306.98 356.43 307.34 357.43 C319.95 393.05 324.9 429.85 324.88 467.5 C324.87 468.44 324.87 469.37 324.87 470.34 C324.84 483.73 324.36 497.07 323.62 510.44 C324.25 510.7 324.87 510.97 325.52 511.24 C326.33 511.59 327.15 511.95 327.99 512.31 C328.79 512.66 329.6 513.01 330.44 513.36 C333.09 514.67 334.61 516.14 336.38 518.5 C340.86 524.4 345.88 526.03 353 527.44 C353.83 527.61 354.66 527.77 355.52 527.95 C371.78 531.12 388.15 532.79 404.7 533.53 C417.37 534.24 430.09 537.17 438.94 546.81 C444.95 554.5 445.76 561.77 444.62 571.44 C441.99 577.89 437.67 583.14 431.56 586.61 C417.86 591.94 402.19 587.39 389.3 581.8 C387.79 581.14 386.29 580.47 384.78 579.8 C376.76 576.32 368.51 573.65 360.19 571 C359.15 570.67 359.15 570.67 358.09 570.33 C343.05 564.69 343.05 564.69 327.74 566.37 C327.23 566.74 326.72 567.11 326.19 567.5 C321.36 570.94 315.16 569.2 309.62 568.44 C309.48 568.97 309.33 569.51 309.18 570.06 C300.81 599.29 286.65 627.31 269.62 652.44 C269.18 653.09 268.74 653.74 268.29 654.42 C256.82 671.32 243.84 686.78 229.62 701.44 C228.93 702.15 228.24 702.86 227.53 703.6 C219.28 712.07 211.02 720.22 201.62 727.44 C200.2 728.57 198.77 729.7 197.34 730.84 C188.47 737.86 179.59 744.43 169.77 750.08 C168.86 750.61 167.94 751.14 167 751.69 C166.18 752.15 165.37 752.61 164.52 753.08 C162.32 754.38 162.32 754.38 161.62 757.44 C161.93 758.16 162.24 758.88 162.56 759.62 C164.18 763.89 164.02 768.15 163.25 772.6 C160.03 791.41 181.8 816.13 192.06 830.81 C200.55 842.98 207.16 854.04 205.62 869.44 C203.91 877.08 200.16 882.15 193.62 886.44 C186.9 889.77 178.88 889.4 171.81 887.31 C156.56 878.34 151.14 865.37 146.38 848.81 C143.39 838.84 140.16 829.04 136.44 819.31 C136.05 818.28 135.65 817.24 135.25 816.18 C129.24 800.52 129.24 800.52 116.56 790.56 C112.4 788.58 110.75 786.5 108.62 782.44 C108.62 781.78 108.62 781.12 108.62 780.44 C107.98 780.72 107.33 781 106.66 781.29 C55.82 802.06 -3.39 806.08 -57.38 798.44 C-59.07 798.22 -60.77 798 -62.46 797.78 C-85.28 794.68 -107.61 787.79 -129.38 780.44 C-129.9 781.38 -129.9 781.38 -130.43 782.34 C-133.24 787.29 -135.7 789.93 -140.88 792.38 C-147.21 795.56 -149.48 799.08 -152.38 805.44 C-152.67 806.07 -152.96 806.71 -153.27 807.36 C-160.22 822.54 -165.23 838.41 -170.22 854.32 C-170.52 855.25 -170.82 856.19 -171.13 857.15 C-171.69 858.9 -172.23 860.65 -172.77 862.4 C-174.71 868.47 -177.63 873.3 -181.38 878.44 C-182.04 879.37 -182.69 880.29 -183.38 881.25 C-187.9 886.2 -192.23 888.22 -198.77 888.68 C-207.39 888.84 -213.76 888.75 -220.3 882.64 C-226.27 876.27 -229.05 870.18 -228.79 861.39 C-228.03 855.96 -225.8 851.31 -223.38 846.44 C-222.95 845.57 -222.53 844.69 -222.09 843.8 C-218.8 837.41 -214.8 831.58 -210.7 825.7 C-203.26 815.03 -196.36 804 -190.38 792.44 C-189.97 791.66 -189.57 790.89 -189.16 790.09 C-185.36 782.63 -184.86 776.91 -186 768.75 C-186.48 764.97 -185.86 762.95 -184.38 759.44 C-184.31 755.98 -184.31 755.98 -185.38 752.44 C-187.94 750.05 -187.94 750.05 -191.38 748.25 C-192.66 747.48 -193.95 746.71 -195.23 745.94 C-195.91 745.53 -196.59 745.13 -197.29 744.71 C-216.84 732.75 -233.99 717.34 -250.38 701.44 C-251.17 700.67 -251.17 700.67 -251.97 699.89 C-257.38 694.63 -262.51 689.21 -267.38 683.44 C-268.11 682.58 -268.85 681.72 -269.61 680.84 C-289.08 657.87 -304.46 632.6 -317.38 605.44 C-317.96 604.21 -317.96 604.21 -318.56 602.96 C-322.27 595 -325.22 586.82 -328.07 578.52 C-328.44 577.49 -328.81 576.46 -329.19 575.4 C-329.52 574.47 -329.84 573.54 -330.17 572.58 C-331.17 570.28 -331.17 570.28 -333.38 569.62 C-335.49 569.43 -337.45 569.48 -339.56 569.62 C-343.26 569.7 -345.54 569.07 -348.81 567.38 C-356.54 563.55 -365.26 566.67 -373.12 569 C-374.02 569.26 -374.92 569.52 -375.84 569.79 C-388.98 573.71 -401.82 578.54 -414.5 583.75 C-427.23 588.89 -439.53 592.18 -452.73 586.83 C-458.57 583.76 -462.96 579.71 -466.44 574.12 C-468.74 565.05 -467.76 558.32 -463.2 550.1 C-456.87 540.85 -445.13 536.9 -434.5 534.88 C-428.34 534 -422.12 533.7 -415.92 533.29 C-403.2 532.44 -390.57 531.36 -378 529.19 C-376.93 529.02 -375.86 528.85 -374.75 528.68 C-366.13 527.06 -361.57 523.13 -355.94 516.62 C-352.41 513.61 -348.89 513.1 -344.38 512.44 C-344.7 511.78 -345.03 511.12 -345.38 510.44 C-345.58 509.12 -345.74 507.79 -345.88 506.46 C-346 505.25 -346 505.25 -346.12 504.01 C-346.21 503.14 -346.29 502.27 -346.38 501.38 C-346.51 500.03 -346.51 500.03 -346.64 498.65 C-348.52 478.58 -348.87 458.83 -347.12 438.75 C-347.06 437.97 -346.99 437.18 -346.92 436.38 C-345.82 423.55 -344.17 411.01 -341.38 398.44 C-341.18 397.5 -340.98 396.55 -340.77 395.58 C-335.46 370.64 -327.58 346.36 -316.38 323.44 C-315.74 322.09 -315.1 320.75 -314.46 319.4 C-301.99 293.51 -301.99 293.51 -294.71 284.34 C-293.1 282.43 -293.1 282.43 -293.31 279.5 C-294.53 276 -295.98 275.18 -298.89 273.05 C-301.46 270.26 -301.89 266.79 -302.64 263.16 C-304.21 257.35 -307.53 254.08 -312.19 250.5 C-312.79 250.03 -313.39 249.57 -314.01 249.09 C-325.94 240.05 -338.84 232.24 -352 225.12 C-364.05 218.59 -376.35 211.13 -381.68 197.89 C-383.56 191.28 -383.14 185.37 -380.31 179.12 C-376.03 171.56 -369.69 166.92 -361.38 164.44 C-352.33 162.52 -344.86 166.79 -337.38 171.44 C-330.26 176.67 -324.46 183.48 -318.47 189.93 C-299.45 213.16 -299.45 213.16 -274.39 226.71 C-272.74 226.76 -272.74 226.76 -271.06 226.81 C-266.91 227.05 -263.89 227.29 -260.38 229.56 C-257.61 231.7 -257.61 231.7 -254.91 231.25 C-252.1 230.35 -250.91 229.42 -248.89 227.3 C-248.27 226.67 -247.65 226.03 -247.01 225.37 C-246.37 224.69 -245.72 224.01 -245.06 223.31 C-243.72 221.93 -242.37 220.55 -241.02 219.16 C-240.06 218.18 -240.06 218.18 -239.08 217.18 C-227.95 205.84 -214.45 196.42 -201.38 187.44 C-200.76 187.02 -200.15 186.59 -199.52 186.16 C-159.96 159.04 -114.09 141.18 -66.94 133 C-66.18 132.87 -65.43 132.74 -64.66 132.6 C-56.52 131.19 -48.67 130.1 -40.38 130.44 C-40.39 129.53 -40.39 129.53 -40.4 128.6 C-40.21 123.13 -39.46 120.16 -35.85 115.98 C-31.2 109.6 -31.5 103.79 -31.81 96.12 C-31.84 94.79 -31.87 93.46 -31.9 92.12 C-32.23 78.44 -33.15 64.9 -36 51.5 C-37.3 44.99 -37.73 38.7 -37.81 32.06 C-37.83 31.16 -37.86 30.26 -37.88 29.32 C-37.85 20 -34.9 11.99 -28.41 5.2 C-20.39 -1.74 -10.01 -4.39 0 0 Z " fill="#FCFDFF" transform="translate(650.375,176.5625)"/>
<path d="M0 0 C2.04 0.35 4.09 0.69 6.13 1.04 C11.5 1.95 16.87 2.88 22.24 3.8 C27.6 4.72 32.97 5.64 38.33 6.55 C47.52 8.11 56.7 9.69 65.88 11.27 C71.71 12.27 77.55 13.26 83.39 14.24 C84.76 14.47 86.14 14.7 87.51 14.93 C89.93 15.34 92.36 15.75 94.79 16.15 C95.83 16.32 96.87 16.5 97.94 16.68 C99.26 16.9 99.26 16.9 100.61 17.12 C103.26 17.72 105.61 18.51 108.07 19.68 C109.17 21.97 109.2 23.16 108.57 25.62 C108.28 26.29 107.99 26.97 107.7 27.66 C107.37 28.42 107.05 29.18 106.72 29.97 C106.18 31.19 106.18 31.19 105.63 32.43 C105.26 33.27 104.9 34.11 104.52 34.98 C92.77 61.78 77.55 86.53 57.55 107.98 C55.57 110.13 53.65 112.32 51.74 114.54 C48.2 118.59 44.44 122.32 40.5 125.99 C39.81 126.63 39.12 127.28 38.4 127.95 C28.01 137.53 16.78 145.79 5.07 153.68 C2.42 152.68 1.26 151.99 -0.22 149.54 C-0.59 148.66 -0.96 147.78 -1.34 146.88 C-1.76 145.89 -2.19 144.9 -2.62 143.87 C-3.05 142.82 -3.49 141.76 -3.93 140.68 C-4.37 139.65 -4.8 138.62 -5.25 137.56 C-6.66 134.19 -8.05 130.81 -9.43 127.43 C-10.49 124.85 -11.56 122.27 -12.62 119.69 C-12.89 119.03 -13.16 118.37 -13.44 117.69 C-16.14 111.15 -18.88 104.63 -21.62 98.11 C-27.63 83.82 -33.61 69.51 -39.5 55.16 C-40.94 51.66 -42.41 48.16 -43.87 44.66 C-44.79 42.43 -45.71 40.21 -46.62 37.99 C-47.04 36.99 -47.47 35.99 -47.9 34.97 C-50.93 27.54 -53.74 19.31 -50.5 11.49 C-47.51 4.95 -42.73 1.34 -36.68 -2.26 C-24.83 -5.62 -11.85 -2.06 0 0 Z " fill="#316DE6" transform="translate(781.93359375,713.32421875)"/>
<path d="M0 0 C0.43 0.37 0.86 0.74 1.3 1.12 C4.25 3.65 7.21 6.18 10.18 8.68 C17.43 14.8 24.44 21.12 31.32 27.66 C35.19 31.34 39.14 34.91 43.17 38.41 C45.48 40.41 47.74 42.45 50 44.5 C52.98 47.19 55.97 49.86 59 52.5 C62.9 55.89 66.73 59.36 70.57 62.82 C72.66 64.69 74.76 66.54 76.88 68.38 C80.86 71.84 84.74 75.41 88.61 79.01 C91.05 81.26 93.51 83.41 96.1 85.49 C98.99 87.99 101.09 90.46 103.31 93.56 C104.33 94.96 104.33 94.96 105.36 96.38 C108.94 102.1 108.45 108.43 108 115 C107.06 118.25 107.06 118.25 105 121 C104.54 121.62 104.08 122.25 103.61 122.89 C96.55 130.69 86.1 132.45 76.34 135.09 C71.72 136.35 67.11 137.67 62.51 138.99 C60.28 139.63 58.05 140.27 55.81 140.9 C48.63 142.92 41.48 145.07 34.35 147.26 C22.26 150.96 10.12 154.45 -2.05 157.88 C-5.62 158.89 -9.19 159.91 -12.76 160.92 C-15.05 161.57 -17.34 162.22 -19.63 162.87 C-21.21 163.32 -21.21 163.32 -22.83 163.78 C-33.3 166.73 -33.3 166.73 -37 167 C-41.05 162.95 -40.19 156.98 -40.24 151.56 C-40.25 150.74 -40.26 149.91 -40.27 149.06 C-40.61 113.3 -36.49 78.45 -23 45 C-22.68 44.2 -22.36 43.39 -22.02 42.56 C-18.02 32.65 -13.64 22.98 -8.69 13.5 C-8.28 12.72 -7.87 11.93 -7.45 11.13 C-5.29 7.08 -3.02 3.49 0 0 Z " fill="#316DE6" transform="translate(411,502)"/>
<path d="M0 0 C52.33 6.15 102.62 30.47 141.56 65.63 C142.1 66.11 142.63 66.58 143.18 67.07 C146.14 69.83 147.88 72.18 149.06 76.07 C144.52 79.83 139.71 83.15 134.87 86.5 C128.16 91.18 121.49 95.89 114.87 100.69 C107.01 106.39 99.1 112.01 91.16 117.59 C89.08 119.06 87 120.52 84.92 121.99 C78.93 126.23 72.94 130.45 66.93 134.65 C66.07 135.26 65.2 135.86 64.31 136.49 C62.57 137.7 60.84 138.91 59.1 140.11 C55.6 142.55 52.12 144.99 48.74 147.59 C41.29 153.31 34.09 157.53 24.44 157.19 C17.44 156.21 12.64 152.58 7.69 147.75 C3.1 140.16 2.49 132.2 2.06 123.5 C1.95 121.56 1.95 121.56 1.84 119.59 C1.61 115.68 1.41 111.78 1.21 107.88 C0.93 102.46 0.63 97.05 0.34 91.63 C-0.05 84.29 -0.44 76.95 -0.83 69.61 C-1.49 56.94 -2.22 44.28 -3.13 31.63 C-4.66 9.83 -4.66 9.83 -3.94 2.07 C-1.94 0.07 -1.94 0.07 0 0 Z " fill="#316DE6" transform="translate(675.93896484375,375.933349609375)"/>
<path d="M0 0 C0.61 0.76 1.22 1.51 1.84 2.29 C2.47 3.04 3.1 3.79 3.75 4.56 C6.75 8.98 7.65 12.66 7.72 17.98 C7.75 19 7.78 20.02 7.8 21.07 C6.48 32.08 1.13 42.66 -3.04 52.86 C-4.03 55.28 -5.01 57.7 -5.99 60.12 C-9.35 68.36 -12.77 76.57 -16.29 84.75 C-18.37 89.58 -20.39 94.43 -22.41 99.29 C-22.83 100.3 -23.25 101.31 -23.68 102.36 C-25.01 105.54 -26.33 108.73 -27.66 111.91 C-30.23 118.11 -32.81 124.3 -35.39 130.49 C-36.79 133.82 -38.16 137.15 -39.51 140.5 C-40.04 141.78 -40.57 143.07 -41.09 144.35 C-41.53 145.42 -41.96 146.49 -42.4 147.6 C-43.66 149.91 -43.66 149.91 -46.66 150.91 C-50.9 148.64 -54.75 145.72 -58.66 142.91 C-60.16 141.85 -60.16 141.85 -61.69 140.76 C-68.16 136.05 -74.08 130.95 -79.91 125.48 C-82.2 123.34 -84.53 121.27 -86.91 119.23 C-93.71 113.31 -99.88 106.83 -105.66 99.91 C-106.29 99.16 -106.29 99.16 -106.94 98.39 C-120.44 82.2 -132.24 64.63 -141.22 45.54 C-141.7 44.53 -142.17 43.52 -142.66 42.49 C-151.66 23.38 -151.66 23.38 -151.66 17.91 C-132.73 14.47 -113.78 11.22 -94.82 8.01 C-85.06 6.36 -75.32 4.69 -65.58 2.95 C-35.52 -2.42 -35.52 -2.42 -22.78 -4.21 C-21.87 -4.35 -20.97 -4.49 -20.03 -4.64 C-12.69 -5.59 -5.94 -4.67 0 0 Z " fill="#316DE6" transform="translate(539.65625,715.0859375)"/>
<path d="M0 0 C0.09 9.71 -0.14 19.31 -0.77 29 C-0.89 31 -1.02 32.99 -1.14 34.98 C-1.32 37.79 -1.5 40.59 -1.67 43.4 C-2.1 50.03 -2.51 56.66 -2.92 63.29 C-2.97 64.03 -3.01 64.77 -3.06 65.54 C-3.72 76.01 -4.3 86.48 -4.83 96.96 C-4.89 98.2 -4.95 99.44 -5.02 100.72 C-5.38 107.79 -5.38 107.79 -5.72 114.86 C-5.87 118.05 -6.03 121.24 -6.19 124.43 C-6.23 125.35 -6.27 126.26 -6.3 127.21 C-6.74 135.27 -7.6 143.85 -13.25 150 C-19.24 155.2 -25.07 156.72 -32.91 156.46 C-46.77 154.41 -60.81 140.35 -71.88 132.25 C-77.03 128.54 -82.25 124.92 -87.46 121.28 C-92.95 117.44 -98.41 113.58 -103.85 109.68 C-108.3 106.49 -112.77 103.34 -117.25 100.19 C-124.11 95.36 -130.93 90.46 -137.72 85.53 C-142.57 82.01 -147.46 78.59 -152.45 75.27 C-152.96 74.85 -153.47 74.43 -154 74 C-154 72 -154 72 -152.74 70.7 C-151.82 69.92 -151.82 69.92 -150.88 69.12 C-148.21 66.87 -145.56 64.61 -142.95 62.29 C-118.48 40.65 -89.66 24.14 -59 13 C-58.18 12.7 -57.37 12.4 -56.53 12.08 C-13.31 -3.79 -13.31 -3.79 0 0 Z " fill="#316DE6" transform="translate(606,377)"/>
<path d="M0 0 C2.47 0.21 3.61 0.54 5.23 2.45 C5.57 3.07 5.91 3.69 6.26 4.33 C6.85 5.39 6.85 5.39 7.45 6.47 C7.86 7.24 8.27 8.02 8.69 8.81 C9.34 10.03 9.34 10.03 10.01 11.27 C23.2 36.18 33.06 63.2 38 91 C38.19 92.06 38.39 93.12 38.59 94.21 C42.03 113.81 42.48 133.06 42.24 152.91 C42.23 154.05 42.23 154.05 42.22 155.21 C42.15 158.6 42.05 161.76 41 165 C34.34 164.28 28.06 162.49 21.62 160.69 C20.38 160.34 19.14 160 17.86 159.64 C1.38 155.04 -15.02 150.18 -31.43 145.35 C-37.22 143.64 -43.02 141.94 -48.81 140.25 C-49.72 139.98 -50.62 139.72 -51.55 139.45 C-56.8 137.91 -62.05 136.43 -67.32 134.98 C-68.57 134.63 -69.83 134.28 -71.12 133.92 C-73.54 133.24 -75.97 132.58 -78.39 131.93 C-88.38 129.14 -98.22 126.17 -104 117 C-106.91 111.67 -107.7 106.93 -106 101 C-102.87 90.83 -94.77 84.7 -87 78 C-86.25 77.34 -85.5 76.68 -84.73 76 C-83.51 74.93 -82.28 73.87 -81.05 72.8 C-78.33 70.41 -75.67 67.96 -73 65.5 C-69.04 61.86 -65.05 58.27 -60.99 54.74 C-58.64 52.68 -56.32 50.59 -54 48.5 C-51.06 45.85 -48.11 43.22 -45.12 40.62 C-41.16 37.17 -37.29 33.61 -33.42 30.05 C-30.01 26.91 -26.56 23.84 -23.06 20.81 C-19.56 17.73 -16.13 14.58 -12.69 11.44 C-9.68 8.71 -6.63 6.03 -3.56 3.38 C-2.33 2.29 -1.16 1.16 0 0 Z " fill="#316DE6" transform="translate(865,503)"/>
<path d="M0 0 C7.03 5.29 10.92 13.88 15.05 21.44 C16.3 23.68 17.54 25.93 18.78 28.17 C19.4 29.3 20.02 30.42 20.67 31.58 C22.86 35.55 25.11 39.48 27.35 43.42 C33.05 53.41 38.54 63.51 43.94 73.66 C48.32 81.88 52.78 90.03 57.37 98.12 C57.9 99.06 58.43 99.99 58.97 100.95 C61.4 105.22 63.84 109.47 66.3 113.71 C66.73 114.46 67.15 115.2 67.59 115.96 C68.37 117.31 69.16 118.66 69.95 120.01 C71.87 123.34 72.49 124.91 72.49 128.88 C42.7 137.81 13.51 141.95 -17.51 141.88 C-18.44 141.88 -19.37 141.88 -20.33 141.88 C-45.75 141.8 -71.29 136.14 -95.51 128.88 C-96.58 126.19 -96.61 125.13 -95.5 122.4 C-94.97 121.48 -94.43 120.55 -93.89 119.6 C-93.29 118.54 -92.69 117.49 -92.08 116.4 C-91.41 115.26 -90.75 114.11 -90.07 112.94 C-89.38 111.73 -88.7 110.53 -88.02 109.32 C-86.58 106.79 -85.14 104.26 -83.7 101.73 C-80.54 96.19 -77.46 90.6 -74.39 85.01 C-73.38 83.18 -72.37 81.35 -71.36 79.52 C-67.14 71.87 -62.97 64.19 -58.82 56.5 C-53.03 45.77 -47.09 35.12 -41.03 24.53 C-39.56 21.96 -38.1 19.38 -36.64 16.8 C-35.77 15.26 -34.89 13.72 -34.01 12.19 C-33.43 11.15 -33.43 11.15 -32.84 10.1 C-25.5 -2.57 -12.82 -6.05 0 0 Z " fill="#316DE6" transform="translate(651.5078125,768.125)"/>
<path d="M0 0 C4.96 1.05 7.9 3.79 10.66 7.88 C11.96 10.04 13.11 12.19 14.16 14.48 C15.44 17.15 17.19 19.26 19.1 21.51 C19.61 22.19 20.13 22.87 20.66 23.58 C22.07 25.46 22.07 25.46 23.66 27.19 C25.64 29.51 27.05 31.32 27.18 34.44 C26.34 41.62 25 48.69 23.42 55.74 C23.12 57.09 22.83 58.44 22.56 59.8 C20 72.52 20 72.52 16.23 75.43 C14.88 76.15 13.5 76.82 12.1 77.44 C11.08 77.97 10.07 78.49 9.02 79.03 C6.03 80.56 3.03 82.01 -0.01 83.43 C-1.91 84.32 -3.79 85.24 -5.68 86.15 C-6.9 86.73 -8.12 87.3 -9.34 87.87 C-10.43 88.39 -11.52 88.91 -12.65 89.44 C-18.3 91.18 -22.88 89.78 -28.01 87.15 C-28.93 86.69 -29.84 86.23 -30.78 85.75 C-31.73 85.26 -32.68 84.76 -33.65 84.26 C-34.63 83.75 -35.6 83.25 -36.61 82.73 C-38.52 81.74 -40.44 80.75 -42.35 79.75 C-44.44 78.68 -46.54 77.67 -48.68 76.7 C-49.64 76.24 -50.6 75.79 -51.59 75.32 C-52.38 74.96 -53.16 74.61 -53.98 74.25 C-59.71 68.87 -60.41 57.52 -62.09 50.19 C-62.36 49.04 -62.63 47.88 -62.92 46.69 C-63.17 45.57 -63.43 44.45 -63.69 43.3 C-63.93 42.3 -64.16 41.29 -64.4 40.25 C-65.58 33.65 -65.58 33.65 -63.88 30.63 C-63.41 30.07 -62.93 29.52 -62.44 28.95 C-61.91 28.31 -61.38 27.68 -60.84 27.02 C-60.26 26.36 -59.68 25.69 -59.09 25.01 C-57.9 23.59 -56.71 22.17 -55.52 20.75 C-54.91 20.04 -54.31 19.32 -53.69 18.59 C-50.49 14.74 -47.45 10.76 -44.42 6.79 C-35.82 -4.33 -13.05 -1.7 0 0 Z " fill="#316DE6" transform="translate(657.9019165039063,598.5568237304688)"/>
<path d="" fill="#000002" transform="translate(0,0)"/>
<path d="" fill="#000002" transform="translate(0,0)"/>
<path d="" fill="#000002" transform="translate(0,0)"/>
<path d="" fill="#000002" transform="translate(0,0)"/>
<path d="" fill="#000002" transform="translate(0,0)"/>
<path d="" fill="#000002" transform="translate(0,0)"/>
<path d="" fill="#000002" transform="translate(0,0)"/>
<path d="" fill="#000002" transform="translate(0,0)"/>
<path d="" fill="#000002" transform="translate(0,0)"/>
<path d="" fill="#000002" transform="translate(0,0)"/>
<path d="" fill="#000002" transform="translate(0,0)"/>
<path d="" fill="#000002" transform="translate(0,0)"/>
<path d="" fill="#000002" transform="translate(0,0)"/>
<path d="" fill="#000002" transform="translate(0,0)"/>
<path d="" fill="#000002" transform="translate(0,0)"/>
<path d="" fill="#000002" transform="translate(0,0)"/>
<path d="" fill="#000002" transform="translate(0,0)"/>
</svg>
