<svg xmlns="http://www.w3.org/2000/svg" width="429" height="429" viewBox="0 0 429 429">
    <path
        d="M213 106v106h216v-6.039c0-9.23-1.867-24.218-4.603-36.958C412.668 114.393 379.403 66.045 332 34.712 300.253 13.727 257.122.093 222.25.02L213 0zm98.647 169.981-6.72 20.982-22.539.268-22.539.269 17.226 12.5c9.475 6.875 17.655 12.78 18.178 13.122.551.36-1.645 8.589-5.204 19.5l-7.089 21.74c-.726 2.225-.659 2.646.303 1.892 6.953-5.451 34.934-25.254 35.682-25.254.537 0 8.71 5.634 18.162 12.52 9.452 6.887 17.374 12.332 17.604 12.102s-2.535-9.556-6.146-20.724S342 324.347 342 324.046s8.066-6.397 17.925-13.546l17.926-13-22.371-.269-22.371-.268-6.805-20.949c-3.742-11.522-7.059-20.964-7.37-20.982-.311-.017-3.59 9.41-7.287 20.949"
        fill="#da121a" fill-rule="evenodd" />
    <path
        d="M213 106v106h216v-6.039c0-9.23-1.867-24.218-4.603-36.958C412.668 114.393 379.403 66.045 332 34.712 300.253 13.727 257.122.093 222.25.02L213 0zm98.647 169.981-6.72 20.982-22.539.268-22.539.269 17.226 12.5c9.475 6.875 17.655 12.78 18.178 13.122.551.36-1.645 8.589-5.204 19.5l-7.089 21.74c-.726 2.225-.659 2.646.303 1.892 6.953-5.451 34.934-25.254 35.682-25.254.537 0 8.71 5.634 18.162 12.52 9.452 6.887 17.374 12.332 17.604 12.102s-2.535-9.556-6.146-20.724S342 324.347 342 324.046s8.066-6.397 17.925-13.546l17.926-13-22.371-.269-22.371-.268-6.805-20.949c-3.742-11.522-7.059-20.964-7.37-20.982-.311-.017-3.59 9.41-7.287 20.949"
        fill="#da121a" fill-rule="evenodd" />
    <path
        d="M186 1.524C89.339 14.934 14.449 90.2 1.449 187 .674 192.775.03 200.762.02 204.75L0 212h213V0l-8.75.103C199.438.16 191.225.799 186 1.524m-80.875 59.895c-.612 2.431-1.635 5.694-2.273 7.25s-1.268 3.346-1.402 3.976-2.188 7.042-4.567 14.25L92.558 100H69.72c-13.521 0-22.608.372-22.274.913.311.502 8.437 6.663 18.059 13.69C75.127 121.631 83 127.919 83 128.577s-2.956 10.291-6.569 21.408c-3.612 11.116-6.338 20.441-6.057 20.722s8.637-5.418 18.569-12.665l18.058-13.178 3.249 2.289c1.788 1.258 9.934 7.167 18.103 13.131s15.114 10.583 15.432 10.264c.319-.319-2.427-9.723-6.102-20.897S131 128.894 131 128.357c0-.538 8.092-6.801 17.982-13.917 9.89-7.117 17.99-13.278 18-13.69s-10.22-.75-22.732-.751H121.5l-6.921-21.5C110.772 66.675 107.338 57 106.947 57c-.39 0-1.21 1.989-1.822 4.419M213 321v108l9.25-.02c5.088-.01 13.975-.654 19.75-1.429 62.684-8.418 117.376-42.734 152.288-95.551 20.985-31.747 34.619-74.878 34.692-109.75L429 213H213zm98.533-46.496L304.659 296h-22.913c-13.359 0-22.774.38-22.579.911.183.501 6.633 5.519 14.333 11.152s14.15 10.622 14.333 11.089c.184.466.859.863 1.5.881.642.019 2.256.94 3.586 2.047l2.419 2.014-6.669 20.82c-3.668 11.451-6.669 21.333-6.669 21.96s3.262-1.26 7.25-4.194a5669 5669 0 0 1 18.418-13.464l11.168-8.13 18.332 13.285c10.083 7.307 18.452 12.8 18.6 12.207s-2.666-9.84-6.25-20.549S343 325.87 343 325.028c0-.841 8.091-7.379 17.98-14.528s17.99-13.337 18-13.75-10.278-.75-22.863-.75h-22.884l-6.707-20.75c-3.689-11.413-7.025-21.086-7.413-21.496s-3.799 8.927-7.58 20.75"
        fill="#fff" fill-rule="evenodd" />
    <path
        d="M99.727 80.002 92.955 101H47.693l17.403 12.561c9.572 6.909 17.78 12.933 18.24 13.386.46.454-2.159 10.145-5.819 21.537s-6.488 20.879-6.283 21.083c.204.204 8.368-5.448 18.142-12.561l17.772-12.932 10.676 7.784C139.215 167.453 142.789 170 143.277 170c.274 0-2.601-9.444-6.389-20.987S130 127.884 130 127.711c0-.174 8.047-6.142 17.882-13.263l17.881-12.948-22.207-.268-22.208-.269-6.878-20.981c-3.783-11.54-7.124-20.981-7.424-20.98s-3.594 9.452-7.319 21M.02 221.75c.01 5.363.654 14.475 1.429 20.25C14.509 339.247 89.753 414.491 187 427.551c5.775.775 13.988 1.419 18.25 1.429l7.75.02V212H0z"
        fill="#072357" fill-rule="evenodd" />
    <path
        d="M213 106v106h216v-6.039c0-9.23-1.867-24.218-4.603-36.958C412.668 114.393 379.403 66.045 332 34.712 300.253 13.727 257.122.093 222.25.02L213 0zm98.647 169.981-6.72 20.982-22.539.268-22.539.269 17.226 12.5c9.475 6.875 17.655 12.78 18.178 13.122.551.36-1.645 8.589-5.204 19.5l-7.089 21.74c-.726 2.225-.659 2.646.303 1.892 6.953-5.451 34.934-25.254 35.682-25.254.537 0 8.71 5.634 18.162 12.52 9.452 6.887 17.374 12.332 17.604 12.102s-2.535-9.556-6.146-20.724S342 324.347 342 324.046s8.066-6.397 17.925-13.546l17.926-13-22.371-.269-22.371-.268-6.805-20.949c-3.742-11.522-7.059-20.964-7.37-20.982-.311-.017-3.59 9.41-7.287 20.949"
        fill="#da121a" fill-rule="evenodd" />
    <path
        d="M58.25 100.747c6.462.174 17.037.174 23.5 0s1.175-.317-11.75-.317-18.213.143-11.75.317m70.25-.052c19.81.714 38.503.741 38.501.055 0-.412-10.464-.658-23.251-.546s-19.65.333-15.25.491m29 6.893-3 2.577 3.25-2.15c1.787-1.183 3.25-2.346 3.25-2.583 0-.749-.423-.488-3.5 2.156M67 115.364c0 .275 1.35 1.461 3 2.636s3 1.911 3 1.636-1.35-1.461-3-2.636-3-1.911-3-1.636m13.119 9.803c1.441 1.283 2.868 3.008 3.171 3.833.45 1.223.567 1.19.631-.182.043-.925-1.384-2.65-3.171-3.833l-3.25-2.15zm-10.04 44.083c-.089 1.979 1.438 2.34 2.516.595.422-.682.277-.884-.355-.493-.588.363-1.297.095-1.576-.596-.305-.758-.537-.562-.585.494m196.671 43.5c29.837.147 78.662.147 108.5 0s5.425-.268-54.25-.268-84.088.121-54.25.268M259 296.941c0 .518.52 1.262 1.155 1.654.708.438.883.275.452-.422-.514-.831 5.399-1.212 22.096-1.424l22.797-.288-23.25-.231c-14.024-.139-23.25.143-23.25.711m81.5-.246c19.81.714 38.503.741 38.501.055 0-.413-10.463-.658-23.251-.546s-19.65.333-15.25.491M328 347.364c0 .275 1.35 1.461 3 2.636s3 1.911 3 1.636-1.35-1.461-3-2.636-3-1.911-3-1.636m-45.689 18.335c.082 1.678.413 1.945 1.398 1.128 1.476-1.226 1.75-2.229.376-1.38-.503.311-1.132 0-1.398-.691s-.435-.266-.376.943m72.768-.89c-.047.774-.59 1.002-1.329.558-.753-.452-.668-.035.213 1.051 1.497 1.841 2.656.703 1.699-1.668-.388-.961-.522-.948-.583.059"
        fill="#fbfbfb" fill-rule="evenodd" />
</svg>